<svg width="489" height="452" viewBox="0 0 489 452" fill="none" xmlns="http://www.w3.org/2000/svg">
<path fill-rule="evenodd" clip-rule="evenodd" d="M437.707 121.953C465.386 166.77 495.467 215.793 486.685 267.388C477.546 321.084 435.436 363.585 390.968 396.554C346.927 429.207 294.294 450.002 238.953 451.061C184.179 452.109 130.475 434.347 86.6139 402.379C44.2034 371.467 3.90054 328.498 0.189849 277.036C-3.32116 228.343 54.0192 197.34 68.4591 150.596C82.5694 104.92 44.2337 41.8058 82.1752 11.6418C119.886 -18.3388 175.25 23.078 223.752 27.1363C264.126 30.5145 305.288 17.0507 342.171 33.3961C383.191 51.5745 414.478 84.342 437.707 121.953Z" fill="#8884FF"/>
</svg>
