<svg width="584" height="434" viewBox="0 0 584 434" fill="none" xmlns="http://www.w3.org/2000/svg">
<path fill-rule="evenodd" clip-rule="evenodd" d="M288.116 33.4323C329.88 39.7865 370.758 35.3398 410.88 48.2992C467.95 66.7328 539 73.1594 568.713 124.066C598.904 175.79 578.248 242.182 556.5 297.781C535.558 351.318 504.466 408.878 449.411 429.061C396.712 448.38 343.8 404.318 288.116 396.168C244.215 389.743 200.353 401.115 158.574 386.497C103.724 367.305 38.7616 350.828 13.0113 299.908C-13.2917 247.895 7.20672 184.793 29.357 130.976C50.385 79.8867 81.2082 26.0295 133.915 6.16077C183.856 -12.6653 235.206 25.3825 288.116 33.4323Z" fill="#42E2B8"/>
</svg>
