<svg width="259" height="249" viewBox="0 0 259 249" fill="none" xmlns="http://www.w3.org/2000/svg">
<path fill-rule="evenodd" clip-rule="evenodd" d="M231.993 67.4555C246.608 92.1522 262.492 119.167 257.85 147.601C253.02 177.194 230.778 200.619 207.291 218.791C184.029 236.789 156.231 248.253 127.004 248.84C98.0768 249.422 69.7155 239.636 46.5538 222.022C24.158 204.989 2.87607 181.312 0.919898 152.952C-0.931007 126.117 29.3539 109.027 36.9831 83.2661C44.4383 58.0928 24.1967 23.3134 44.2365 6.68745C64.1545 -9.83737 93.3906 12.9836 119.005 15.2168C140.328 17.0758 162.067 9.65313 181.545 18.6586C203.207 28.6738 219.729 46.7298 231.993 67.4555Z" fill="#8884FF"/>
</svg>
