<svg width="309" height="239" viewBox="0 0 309 239" fill="none" xmlns="http://www.w3.org/2000/svg">
<path fill-rule="evenodd" clip-rule="evenodd" d="M152.669 18.3026C174.728 21.8041 196.319 19.3537 217.51 26.4949C247.653 36.6526 285.181 40.1939 300.875 68.2453C316.821 96.7474 305.911 133.332 294.424 163.97C283.363 193.471 266.941 225.189 237.862 236.31C210.027 246.956 182.08 222.676 152.669 218.185C129.481 214.645 106.314 220.911 84.2474 212.856C55.2768 202.28 20.9647 193.2 7.36393 165.141C-6.52885 136.48 4.29804 101.708 15.9974 72.0533C27.104 43.9009 43.3842 14.2234 71.2228 3.27491C97.6005 -7.09902 124.723 13.8668 152.669 18.3026Z" fill="#42E2B8"/>
</svg>
